<?xml version="1.0" encoding="utf-8"?>
<!-- Generator: Adobe Illustrator 24.1.2, SVG Export Plug-In . SVG Version: 6.00 Build 0)  -->
<svg version="1.1" id="Capa_1" xmlns="http://www.w3.org/2000/svg" xmlns:xlink="http://www.w3.org/1999/xlink" x="0px" y="0px"
	 viewBox="0 0 512 512" style="enable-background:new 0 0 512 512;" xml:space="preserve">
<style type="text/css">
	.st0{fill:#FFFFFF;}
</style>
<g>
	<g>
		<path class="st0" d="M485.8,264.9L447.9,227c0.7-2.4,1-4.9,1-7.5v-58.1c0-5.5-4.5-10-10-10H372L301.5,5.6c-1.5-3-4.3-5.1-7.6-5.6
			c-3.3-0.5-6.6,0.8-8.9,3.3l-71.3,81l-66.4-24.2c-2.5-0.9-5.2-0.8-7.6,0.3c-2.4,1.1-4.3,3.2-5.2,5.6l-19.9,54.6
			c-1.4,3.8-1.9,7.7-1.6,11.6l-11.9,6.1c-26.5,13.6-46.7,36.4-56.9,64.4L6.4,306.7C-0.9,327,0,349,9.1,368.5s25.3,34.4,45.6,41.8
			L163,449.7c5.7,2.1,11.5,3.1,17.3,3.1c18.9,0,36.6-10.7,45.1-28.8l19.1-40.8v48c0,44.6,36.3,80.8,80.8,80.8h80.9
			c44.6,0,80.8-36.3,80.8-80.8v-41c14.3-12.1,23.4-30.1,23.4-50.2v-15.5C510.5,301.9,501.7,280.8,485.8,264.9z M365.8,171.3
			C365.8,171.3,365.8,171.3,365.8,171.3l63.2,0v18.1h-55.8c-5.5,0-10,4.5-10,10s4.5,10,10,10H429v10.1c0,4.4-3.6,8-8,8H310.5
			c-4.4,0-8-3.6-8-8v-48.1L365.8,171.3C365.8,171.3,365.8,171.3,365.8,171.3z M290.1,27.9l59.7,123.4h-57.3c-5.5,0-10,4.5-10,10
			v55.5l-15.1-32.3c1.5-2,2.7-4.3,3.5-6.7l19.9-54.6c1.9-5.2-0.8-10.9-6-12.8l-51-18.6L290.1,27.9z M133.4,127.6l4.8-13.1l60.9,22.2
			c1.1,0.4,2.3,0.6,3.4,0.6c4.1,0,7.9-2.5,9.4-6.6c1.9-5.2-0.8-10.9-6-12.8L145,95.7l4.8-13.3l118.8,43.2l-16.5,45.2
			c-0.7,2-2.2,3.6-4.1,4.5c-1.9,0.9-4.1,1-6.1,0.3l-103.8-37.8c-2-0.7-3.6-2.2-4.5-4.1C132.8,131.8,132.7,129.6,133.4,127.6z
			 M244.5,336l-37.2,79.4c-6.6,14.2-22.7,20.8-37.4,15.5L61.6,391.5c-15.3-5.6-27.5-16.7-34.3-31.4s-7.6-31.2-2-46.5L63,209.7
			c8.4-23.2,25.2-42.2,47.2-53.5l11.3-5.8c2.8,2.7,6.1,4.8,9.9,6.2l103.8,37.8c3.1,1.1,6.4,1.7,9.6,1.7c2,0,3.9-0.2,5.8-0.6
			l16.5,35.4c2.1,4.5,3.8,9.2,5.2,13.9c-17.9,21.2-27.8,47.9-27.8,75.9L244.5,336L244.5,336z M490.5,339.9L490.5,339.9
			c0,25.2-20.5,45.7-45.7,45.7h-16.3c-13.9,0-25.2-11.3-25.2-25.2c0-13.9,11.3-25.2,25.2-25.2h18c5.5,0,10-4.5,10-10s-4.5-10-10-10
			h-18c-24.9,0-45.2,20.3-45.2,45.2s20.3,45.2,45.2,45.2h16.3c7.8,0,15.3-1.4,22.3-3.9v29.5c0,33.5-27.3,60.8-60.8,60.8h-80.9
			c-33.5,0-60.8-27.3-60.8-60.8V320.7c0-24.7,9.3-48.3,26.1-66.4l8.6-9.3c3.5,1.6,7.3,2.4,11.4,2.4H421c5.5,0,10.5-1.6,14.9-4.3
			l35.8,35.8c12.1,12.1,18.8,28.3,18.8,45.4V339.9z"/>
	</g>
</g>
<g>
	<g>
		<path class="st0" d="M339.2,192.3c-1.9-1.9-4.4-2.9-7.1-2.9s-5.2,1.1-7.1,2.9c-1.9,1.9-2.9,4.4-2.9,7.1c0,2.6,1.1,5.2,2.9,7.1
			c1.9,1.9,4.4,2.9,7.1,2.9s5.2-1.1,7.1-2.9c1.9-1.9,2.9-4.4,2.9-7.1C342.1,196.8,341.1,194.2,339.2,192.3z"/>
	</g>
</g>
<g>
	<g>
		<path class="st0" d="M126.3,372.5l-0.3-0.1c-5.2-1.9-10.9,0.8-12.8,6c-1.9,5.2,0.8,10.9,6,12.8l0.3,0.1c1.1,0.4,2.3,0.6,3.4,0.6
			c4.1,0,7.9-2.5,9.4-6.6C134.2,380.1,131.5,374.4,126.3,372.5z"/>
	</g>
</g>
<g>
	<g>
		<path class="st0" d="M90.7,359.5l-15.4-5.6c-5.2-1.9-9.4-5.7-11.7-10.8c-2.3-5-2.6-10.7-0.7-15.9c1.9-5.2-0.8-10.9-6-12.8
			c-5.2-1.9-10.9,0.8-12.8,6c-3.7,10.2-3.2,21.3,1.4,31.2c4.6,9.9,12.8,17.4,23,21.1l15.4,5.6c1.1,0.4,2.3,0.6,3.4,0.6
			c4.1,0,7.9-2.5,9.4-6.6C98.5,367.2,95.8,361.4,90.7,359.5z"/>
	</g>
</g>
</svg>
