<?xml version="1.0" encoding="utf-8"?>
<!-- Generator: Adobe Illustrator 24.1.2, SVG Export Plug-In . SVG Version: 6.00 Build 0)  -->
<svg version="1.1" id="Layer_1" xmlns="http://www.w3.org/2000/svg" xmlns:xlink="http://www.w3.org/1999/xlink" x="0px" y="0px"
	 viewBox="0 0 511 512" style="enable-background:new 0 0 511 512;" xml:space="preserve">
<style type="text/css">
	.st0{fill:#FFFFFF;}
</style>
<path class="st0" d="M443.7,45.3h-24.9l-6.9-33.5C410.3,4.4,403.8-1,396.3-1H114.9c-7.5,0-14.1,5.4-15.6,12.7l-6.9,33.5H67.4
	c-11,0-19.9,8.9-19.9,19.9v33c0,11,8.9,19.9,19.9,19.9h9.8l5.5,38.9c-1.7,1-3.2,2.2-4.5,3.7c-3.3,3.8-4.8,8.9-4.1,14l37,260
	c1,7.2,6.4,12.9,13.2,14.5l5.3,37c2,14.1,14.3,24.8,28.5,24.8H353c14.3,0,26.5-10.6,28.5-24.8l5.3-37c6.8-1.7,12.2-7.4,13.2-14.5
	l37-260c0.7-5-0.8-10.1-4.1-14c-1.3-1.5-2.8-2.7-4.5-3.7l5.5-38.9h9.8c11,0,19.9-8.9,19.9-19.9v-33
	C463.6,54.2,454.7,45.3,443.7,45.3z M422.1,172.6l-37,260c-0.2,1.2-1.2,2.2-2.5,2.2h-71.8c-4.1,0-7.5,3.4-7.5,7.5s3.4,7.5,7.5,7.5
	h60.8l-4.9,34.4c-1,6.8-6.8,11.9-13.7,11.9H158.1c-6.8,0-12.7-5.1-13.7-11.9l-4.9-34.4h136.3c4.1,0,7.5-3.4,7.5-7.5
	s-3.4-7.5-7.5-7.5H128.5c-1.2,0-2.3-0.9-2.5-2.2l-37-260c-0.1-1,0.3-1.7,0.6-2c0.3-0.3,0.9-0.8,1.8-0.8c0.1,0,0.2,0,0.3,0h327.8
	c0.1,0,0.2,0,0.3,0c0.9,0,1.5,0.5,1.8,0.8C421.8,170.9,422.3,171.6,422.1,172.6z M92.4,118.1h326.3l-5.2,36.6H97.6L92.4,118.1z
	 M448.6,98.1c0,2.7-2.2,4.9-4.9,4.9H67.4c-2.7,0-4.9-2.2-4.9-4.9v-33c0-2.7,2.2-4.9,4.9-4.9h67.2c4.1,0,7.5-3.4,7.5-7.5
	c0-4.1-3.4-7.5-7.5-7.5h-27l6.3-30.5c0.1-0.4,0.5-0.8,0.9-0.8h281.4c0.4,0,0.8,0.3,0.9,0.8l6.3,30.5H169.5c-4.1,0-7.5,3.4-7.5,7.5
	c0,4.1,3.4,7.5,7.5,7.5h274.1c2.7,0,4.9,2.2,4.9,4.9V98.1z"/>
<path class="st0" d="M312,240.4c-0.1-0.1-0.1-0.1-0.2-0.1c-25-24.7-70.4-19.6-101.5,11.5c-14.9,14.8-24.3,33.4-26.7,52.3
	c-2.4,19.5,3,37.1,15.3,49.4c0,0,0,0,0,0c0,0,0,0,0.1,0.1c10.4,10.4,24.5,15.8,40.4,15.8c2.9,0,5.9-0.2,9-0.6
	c18.9-2.3,37.4-11.8,52.3-26.7C331.9,311,337,265.4,312,240.4C312,240.4,312,240.4,312,240.4z M198.6,305.9
	c1.9-15.6,9.9-31,22.4-43.5c15-15,33.7-22.9,50.5-22.9c7.7,0,15,1.7,21.3,5.1c-12.6,7.5-32.2,22.2-38.1,44.1
	c-5.2,19-33.3,40-48.7,49.8C199.6,329.8,197,318.5,198.6,305.9z M290.1,331.5c-12.5,12.5-27.9,20.4-43.5,22.4
	c-11,1.4-21-0.4-29.1-5.1c15.5-10.2,45.1-32.4,51.6-56.2c5.3-19.4,26.2-32.5,35.8-37.6C319.7,274.8,313.8,307.9,290.1,331.5z"/>
</svg>
