<?xml version="1.0" encoding="utf-8"?>
<!-- Generator: Adobe Illustrator 24.1.2, SVG Export Plug-In . SVG Version: 6.00 Build 0)  -->
<svg version="1.1" id="Capa_1" xmlns="http://www.w3.org/2000/svg" xmlns:xlink="http://www.w3.org/1999/xlink" x="0px" y="0px"
	 viewBox="0 0 512 512" style="enable-background:new 0 0 512 512;" xml:space="preserve">
<style type="text/css">
	.st0{fill:#FFFFFF;}
</style>
<g>
	<path class="st0" d="M175.3,239.7c-17.1,0-31.1,13.9-31.1,31.1s13.9,31.1,31.1,31.1s31.1-13.9,31.1-31.1S192.4,239.7,175.3,239.7
		L175.3,239.7z M175.3,286.8c-8.8,0-16-7.2-16-16c0-8.8,7.2-16,16-16s16,7.2,16,16S184.1,286.8,175.3,286.8z"/>
	<path class="st0" d="M305.7,270.8c0,17.1,13.9,31.1,31.1,31.1s31.1-13.9,31.1-31.1s-13.9-31.1-31.1-31.1S305.7,253.6,305.7,270.8z
		 M336.7,254.7c8.8,0,16,7.2,16,16c0,8.8-7.2,16-16,16c-8.8,0-16-7.2-16-16C320.7,261.9,327.9,254.7,336.7,254.7z"/>
	<path class="st0" d="M511.1,376.5l-33.9-201.7c0-0.1,0-0.3-0.1-0.4c-4.8-33.5-27.3-60.8-57.1-73.1V87.3c0-12.4-10.1-22.5-22.5-22.5
		h-28.3c-12.4,0-22.5,10.1-22.5,22.5v15.1c-10,4.5-19.2,10.8-27.3,18.7H192.6c-8-7.9-17.3-14.2-27.3-18.7V87.3
		c0-12.4-10.1-22.5-22.5-22.5h-28.3C102.1,64.8,92,74.9,92,87.3v13.9c-29.9,12.3-52.4,39.6-57.1,73.1c0,0.1-0.1,0.3-0.1,0.4
		l-10.9,65c-0.7,4.1,2.1,8,6.2,8.7c4.1,0.7,8-2.1,8.7-6.2l10.8-64.3c0.1-0.3,0.1-0.6,0.2-0.8c5.2-38.6,38.6-67.7,77.6-67.7
		c20.7,0,40,7.9,54.8,22.4V142c0,15.2,12.4,27.6,27.6,27.6H241c4.1,0,7.5-3.4,7.5-7.5c0-4.2-3.4-7.5-7.5-7.5h-31.5
		c-6.9,0-12.5-5.6-12.5-12.5v-5.8h118v5.8c0,6.9-5.6,12.5-12.5,12.5H271c-4.1,0-7.5,3.4-7.5,7.5s3.4,7.5,7.5,7.5h31.5
		c15.2,0,27.6-12.4,27.6-27.6v-10.3c14.7-14.5,34-22.4,54.8-22.4c39,0,72.4,29.1,77.6,67.7c0,0.3,0.1,0.6,0.2,0.8L496.3,379
		c3.5,21.1-7.8,41.6-27.5,49.8c-11.8,4.9-24.8,4.7-36.4-0.6s-20.3-14.9-24.4-27.1l-6.9-20.6c-1.3-3.9-5.6-6.1-9.5-4.7
		c-3.9,1.3-6.1,5.6-4.7,9.5l6.9,20.6c5.3,15.9,17.2,29,32.4,36c8,3.6,16.5,5.4,25.1,5.4c7.9,0,15.8-1.5,23.3-4.6
		C500.8,431.7,515.9,404.5,511.1,376.5L511.1,376.5z M107,96.5v-9.2c0-4.1,3.4-7.5,7.5-7.5h28.3c4.1,0,7.5,3.4,7.5,7.5v9.8
		c-7.5-1.9-15.2-2.9-23.1-2.9C120.3,94.3,113.5,95.1,107,96.5L107,96.5z M361.7,97.1v-9.8c0-4.1,3.4-7.5,7.5-7.5h28.3
		c4.1,0,7.5,3.4,7.5,7.5v9.2c-6.5-1.5-13.3-2.2-20.2-2.2C376.9,94.3,369.1,95.3,361.7,97.1z"/>
	<path class="st0" d="M391.4,352l-13.4-39.8c-0.8-2.3-2.6-4-4.8-4.8c-2.3-0.7-4.8-0.3-6.7,1.1c-8.2,5.9-17.8,9.1-27.9,9.1
		c-13,0-25.2-5.2-34.2-14.6c-1.4-1.5-3.4-2.3-5.4-2.3h-86c-2,0-4,0.8-5.4,2.3c-9,9.4-21.2,14.6-34.2,14.6c-10.1,0-19.8-3.1-27.9-9.1
		c-1.9-1.4-4.4-1.8-6.7-1.1c-2.3,0.7-4.1,2.5-4.8,4.8l-29.8,88.9c-4.1,12.1-12.7,21.8-24.4,27.1c-11.7,5.3-24.6,5.5-36.4,0.6
		c-19.8-8.2-31.1-28.7-27.5-49.8l18-107.1c0.7-4.1-2.1-8-6.2-8.7c-4.1-0.7-8,2.1-8.7,6.2l-18,107.1c-4.7,28,10.3,55.2,36.6,66.1
		c7.4,3.1,15.4,4.6,23.3,4.6c8.6,0,17.2-1.8,25.1-5.4c15.3-6.9,27.1-20,32.4-36l26.8-79.9c8.7,4.4,18.3,6.7,28.2,6.7
		c16,0,31.1-6,42.7-16.9h79.8c11.6,10.9,26.7,16.9,42.7,16.9c9.9,0,19.5-2.3,28.2-6.7l10.4,30.8c1.3,3.9,5.6,6.1,9.5,4.7
		C390.6,360.2,392.8,355.9,391.4,352z"/>
	<path class="st0" d="M127.8,141c-12.9,0-23.5,10.5-23.5,23.5v1.7h-1.7c-12.9,0-23.5,10.5-23.5,23.5S89.7,213,102.6,213h1.7v1.7
		c0,12.9,10.5,23.5,23.5,23.5s23.5-10.5,23.5-23.5V213h1.7c12.9,0,23.5-10.5,23.5-23.5s-10.5-23.5-23.5-23.5h-1.7v-1.7
		C151.3,151.5,140.7,141,127.8,141z M153,181.2c4.6,0,8.4,3.8,8.4,8.4s-3.8,8.4-8.4,8.4h-9.2c-4.1,0-7.5,3.4-7.5,7.5v9.2
		c0,4.6-3.8,8.4-8.4,8.4s-8.4-3.8-8.4-8.4v-9.2c0-4.1-3.4-7.5-7.5-7.5h-9.2c-4.6,0-8.4-3.8-8.4-8.4c0-4.6,3.8-8.4,8.4-8.4h9.2
		c4.2,0,7.5-3.4,7.5-7.5v-9.2c0-4.6,3.8-8.4,8.4-8.4c4.6,0,8.4,3.8,8.4,8.4v9.2c0,4.1,3.4,7.5,7.5,7.5H153z"/>
	<path class="st0" d="M389.3,130.7c-12.1,0-21.9,9.8-21.9,21.9s9.8,21.9,21.9,21.9s21.9-9.8,21.9-21.9S401.4,130.7,389.3,130.7z
		 M389.3,159.6c-3.8,0-6.9-3.1-6.9-6.9s3.1-6.9,6.9-6.9s6.9,3.1,6.9,6.9S393.2,159.6,389.3,159.6z"/>
	<path class="st0" d="M389.3,204.6c-12.1,0-21.9,9.8-21.9,21.9c0,12.1,9.8,21.9,21.9,21.9s21.9-9.8,21.9-21.9
		C411.3,214.4,401.4,204.6,389.3,204.6L389.3,204.6z M389.3,233.4c-3.8,0-6.9-3.1-6.9-6.9c0-3.8,3.1-6.9,6.9-6.9s6.9,3.1,6.9,6.9
		S393.2,233.4,389.3,233.4z"/>
	<path class="st0" d="M448.2,189.6c0-12.1-9.8-21.9-21.9-21.9s-21.9,9.8-21.9,21.9s9.8,21.9,21.9,21.9S448.2,201.7,448.2,189.6z
		 M419.4,189.6c0-3.8,3.1-6.9,6.9-6.9s6.9,3.1,6.9,6.9s-3.1,6.9-6.9,6.9S419.4,193.4,419.4,189.6z"/>
	<path class="st0" d="M330.5,189.6c0,12.1,9.8,21.9,21.9,21.9s21.9-9.8,21.9-21.9s-9.8-21.9-21.9-21.9
		C340.3,167.6,330.5,177.5,330.5,189.6z M359.3,189.6c0,3.8-3.1,6.9-6.9,6.9s-6.9-3.1-6.9-6.9s3.1-6.9,6.9-6.9
		C356.2,182.7,359.3,185.8,359.3,189.6z"/>
	<path class="st0" d="M233.8,218.7c4.1,0,7.5-3.4,7.5-7.5s-3.4-7.5-7.5-7.5h-22.5c-4.1,0-7.5,3.4-7.5,7.5s3.4,7.5,7.5,7.5H233.8z"/>
	<path class="st0" d="M300.7,203.7h-22.5c-4.1,0-7.5,3.4-7.5,7.5s3.4,7.5,7.5,7.5h22.5c4.1,0,7.5-3.4,7.5-7.5
		C308.2,207,304.8,203.7,300.7,203.7L300.7,203.7z"/>
</g>
</svg>
